<svg xmlns="http://www.w3.org/2000/svg" xmlns:xlink="http://www.w3.org/1999/xlink" width="400" zoomAndPan="magnify" viewBox="0 0 300 74.999997" height="100" preserveAspectRatio="xMidYMid meet" version="1.0"><defs><g/></defs><path fill="#8c52ff" d="M 63.257812 42.101562 C 51.042969 46.546875 39.765625 49.835938 31.601562 51.503906 C 24.085938 53.035156 19.207031 53.199219 18.636719 51.632812 C 18.085938 50.121094 21.640625 47.265625 27.933594 43.792969 C 28.558594 43.445312 28.914062 42.75 28.816406 42.039062 C 28.816406 42.027344 28.8125 42.015625 28.8125 42.003906 C 28.652344 40.824219 27.390625 40.144531 26.324219 40.667969 C 10.09375 48.613281 0.0390625 55.871094 1.359375 59.496094 C 2.710938 63.207031 15.664062 62.167969 33.898438 57.542969 C 34.5625 57.378906 35.261719 57.605469 35.6875 58.140625 C 44.296875 68.996094 59.191406 73.660156 72.925781 68.660156 C 90.28125 62.34375 94.339844 49.6875 94.742188 40.328125 C 94.972656 34.933594 93.207031 31.203125 63.257812 42.101562 Z M 63.257812 42.101562 " fill-opacity="1" fill-rule="nonzero"/><path fill="#8c52ff" d="M 121.859375 15.636719 C 120.480469 11.847656 107.023438 13.007812 88.207031 17.875 C 79.71875 6.390625 64.390625 1.339844 50.289062 6.46875 C 35.734375 11.765625 30.675781 21.925781 29.109375 30.226562 C 28.019531 36.003906 28.925781 41.175781 58.945312 30.25 C 70.972656 25.871094 82.082031 22.621094 90.21875 20.929688 C 97.945312 19.320312 102.988281 19.125 103.566406 20.71875 C 104.078125 22.117188 101.074219 24.664062 95.636719 27.792969 C 94.429688 28.488281 93.824219 29.878906 94.089844 31.242188 C 94.09375 31.265625 94.101562 31.285156 94.105469 31.308594 C 94.511719 33.40625 96.828125 34.511719 98.738281 33.554688 C 113.878906 25.964844 123.125 19.117188 121.859375 15.636719 Z M 121.859375 15.636719 " fill-opacity="1" fill-rule="nonzero"/><g fill="#000000" fill-opacity="1"><g transform="translate(121.52095, 50.484372)"><g><path d="M 6.546875 -15.875 L 6.546875 -11.890625 L 12.984375 -11.890625 L 12.984375 -8.1875 L 6.546875 -8.1875 L 6.546875 -3.84375 L 13.828125 -3.84375 L 13.828125 0 L 1.75 0 L 1.75 -19.734375 L 13.828125 -19.734375 L 13.828125 -15.875 Z M 6.546875 -15.875 "/></g></g></g><g fill="#000000" fill-opacity="1"><g transform="translate(139.227135, 50.484372)"><g><path d="M 8.796875 -4.5 L 12.203125 -15.6875 L 17.3125 -15.6875 L 11.75 0 L 5.8125 0 L 0.25 -15.6875 L 5.390625 -15.6875 Z M 8.796875 -4.5 "/></g></g></g><g fill="#000000" fill-opacity="1"><g transform="translate(159.322117, 50.484372)"><g><path d="M 16.53125 -8.09375 C 16.53125 -7.644531 16.5 -7.175781 16.4375 -6.6875 L 5.5625 -6.6875 C 5.632812 -5.71875 5.945312 -4.972656 6.5 -4.453125 C 7.0625 -3.941406 7.742188 -3.6875 8.546875 -3.6875 C 9.742188 -3.6875 10.578125 -4.191406 11.046875 -5.203125 L 16.15625 -5.203125 C 15.894531 -4.171875 15.421875 -3.242188 14.734375 -2.421875 C 14.054688 -1.597656 13.203125 -0.953125 12.171875 -0.484375 C 11.140625 -0.015625 9.988281 0.21875 8.71875 0.21875 C 7.175781 0.21875 5.804688 -0.109375 4.609375 -0.765625 C 3.410156 -1.421875 2.472656 -2.351562 1.796875 -3.5625 C 1.117188 -4.78125 0.78125 -6.207031 0.78125 -7.84375 C 0.78125 -9.46875 1.113281 -10.890625 1.78125 -12.109375 C 2.445312 -13.328125 3.378906 -14.265625 4.578125 -14.921875 C 5.773438 -15.578125 7.15625 -15.90625 8.71875 -15.90625 C 10.226562 -15.90625 11.570312 -15.585938 12.75 -14.953125 C 13.9375 -14.316406 14.863281 -13.40625 15.53125 -12.21875 C 16.195312 -11.039062 16.53125 -9.664062 16.53125 -8.09375 Z M 11.609375 -9.359375 C 11.609375 -10.179688 11.328125 -10.835938 10.765625 -11.328125 C 10.203125 -11.816406 9.5 -12.0625 8.65625 -12.0625 C 7.851562 -12.0625 7.175781 -11.828125 6.625 -11.359375 C 6.070312 -10.890625 5.726562 -10.222656 5.59375 -9.359375 Z M 11.609375 -9.359375 "/></g></g></g><g fill="#000000" fill-opacity="1"><g transform="translate(179.13606, 50.484372)"><g><path d="M 11.296875 -15.859375 C 13.128906 -15.859375 14.59375 -15.257812 15.6875 -14.0625 C 16.789062 -12.875 17.34375 -11.238281 17.34375 -9.15625 L 17.34375 0 L 12.5625 0 L 12.5625 -8.515625 C 12.5625 -9.566406 12.289062 -10.378906 11.75 -10.953125 C 11.207031 -11.535156 10.476562 -11.828125 9.5625 -11.828125 C 8.644531 -11.828125 7.910156 -11.535156 7.359375 -10.953125 C 6.816406 -10.378906 6.546875 -9.566406 6.546875 -8.515625 L 6.546875 0 L 1.75 0 L 1.75 -15.6875 L 6.546875 -15.6875 L 6.546875 -13.609375 C 7.035156 -14.296875 7.691406 -14.84375 8.515625 -15.25 C 9.335938 -15.65625 10.265625 -15.859375 11.296875 -15.859375 Z M 11.296875 -15.859375 "/></g></g></g><g fill="#000000" fill-opacity="1"><g transform="translate(200.580006, 50.484372)"><g><path d="M 10.484375 -4.078125 L 10.484375 0 L 8.046875 0 C 6.296875 0 4.929688 -0.425781 3.953125 -1.28125 C 2.984375 -2.132812 2.5 -3.523438 2.5 -5.453125 L 2.5 -11.6875 L 0.59375 -11.6875 L 0.59375 -15.6875 L 2.5 -15.6875 L 2.5 -19.515625 L 7.3125 -19.515625 L 7.3125 -15.6875 L 10.453125 -15.6875 L 10.453125 -11.6875 L 7.3125 -11.6875 L 7.3125 -5.390625 C 7.3125 -4.921875 7.421875 -4.582031 7.640625 -4.375 C 7.867188 -4.175781 8.242188 -4.078125 8.765625 -4.078125 Z M 10.484375 -4.078125 "/></g></g></g><g fill="#000000" fill-opacity="1"><g transform="translate(214.492235, 50.484372)"><g><path d="M 6.546875 -3.703125 L 12.84375 -3.703125 L 12.84375 0 L 1.75 0 L 1.75 -19.734375 L 6.546875 -19.734375 Z M 6.546875 -3.703125 "/></g></g></g><g fill="#000000" fill-opacity="1"><g transform="translate(230.399798, 50.484372)"><g><path d="M 8.875 0.21875 C 7.34375 0.21875 5.960938 -0.109375 4.734375 -0.765625 C 3.503906 -1.421875 2.535156 -2.351562 1.828125 -3.5625 C 1.128906 -4.78125 0.78125 -6.207031 0.78125 -7.84375 C 0.78125 -9.457031 1.132812 -10.875 1.84375 -12.09375 C 2.5625 -13.320312 3.539062 -14.265625 4.78125 -14.921875 C 6.019531 -15.578125 7.40625 -15.90625 8.9375 -15.90625 C 10.476562 -15.90625 11.863281 -15.578125 13.09375 -14.921875 C 14.332031 -14.265625 15.304688 -13.320312 16.015625 -12.09375 C 16.734375 -10.875 17.09375 -9.457031 17.09375 -7.84375 C 17.09375 -6.226562 16.726562 -4.804688 16 -3.578125 C 15.28125 -2.359375 14.296875 -1.421875 13.046875 -0.765625 C 11.804688 -0.109375 10.414062 0.21875 8.875 0.21875 Z M 8.875 -3.9375 C 9.800781 -3.9375 10.585938 -4.269531 11.234375 -4.9375 C 11.878906 -5.613281 12.203125 -6.582031 12.203125 -7.84375 C 12.203125 -9.09375 11.882812 -10.054688 11.25 -10.734375 C 10.625 -11.410156 9.851562 -11.75 8.9375 -11.75 C 8 -11.75 7.21875 -11.414062 6.59375 -10.75 C 5.976562 -10.082031 5.671875 -9.113281 5.671875 -7.84375 C 5.671875 -6.582031 5.972656 -5.613281 6.578125 -4.9375 C 7.191406 -4.269531 7.957031 -3.9375 8.875 -3.9375 Z M 8.875 -3.9375 "/></g></g></g><g fill="#000000" fill-opacity="1"><g transform="translate(250.803911, 50.484372)"><g><path d="M 8.875 0.21875 C 7.34375 0.21875 5.960938 -0.109375 4.734375 -0.765625 C 3.503906 -1.421875 2.535156 -2.351562 1.828125 -3.5625 C 1.128906 -4.78125 0.78125 -6.207031 0.78125 -7.84375 C 0.78125 -9.457031 1.132812 -10.875 1.84375 -12.09375 C 2.5625 -13.320312 3.539062 -14.265625 4.78125 -14.921875 C 6.019531 -15.578125 7.40625 -15.90625 8.9375 -15.90625 C 10.476562 -15.90625 11.863281 -15.578125 13.09375 -14.921875 C 14.332031 -14.265625 15.304688 -13.320312 16.015625 -12.09375 C 16.734375 -10.875 17.09375 -9.457031 17.09375 -7.84375 C 17.09375 -6.226562 16.726562 -4.804688 16 -3.578125 C 15.28125 -2.359375 14.296875 -1.421875 13.046875 -0.765625 C 11.804688 -0.109375 10.414062 0.21875 8.875 0.21875 Z M 8.875 -3.9375 C 9.800781 -3.9375 10.585938 -4.269531 11.234375 -4.9375 C 11.878906 -5.613281 12.203125 -6.582031 12.203125 -7.84375 C 12.203125 -9.09375 11.882812 -10.054688 11.25 -10.734375 C 10.625 -11.410156 9.851562 -11.75 8.9375 -11.75 C 8 -11.75 7.21875 -11.414062 6.59375 -10.75 C 5.976562 -10.082031 5.671875 -9.113281 5.671875 -7.84375 C 5.671875 -6.582031 5.972656 -5.613281 6.578125 -4.9375 C 7.191406 -4.269531 7.957031 -3.9375 8.875 -3.9375 Z M 8.875 -3.9375 "/></g></g></g><g fill="#000000" fill-opacity="1"><g transform="translate(271.208024, 50.484372)"><g><path d="M 21.75 -15.859375 C 23.707031 -15.859375 25.257812 -15.265625 26.40625 -14.078125 C 27.5625 -12.898438 28.140625 -11.257812 28.140625 -9.15625 L 28.140625 0 L 23.359375 0 L 23.359375 -8.515625 C 23.359375 -9.523438 23.085938 -10.304688 22.546875 -10.859375 C 22.015625 -11.410156 21.28125 -11.6875 20.34375 -11.6875 C 19.414062 -11.6875 18.679688 -11.410156 18.140625 -10.859375 C 17.609375 -10.304688 17.34375 -9.523438 17.34375 -8.515625 L 17.34375 0 L 12.5625 0 L 12.5625 -8.515625 C 12.5625 -9.523438 12.296875 -10.304688 11.765625 -10.859375 C 11.234375 -11.410156 10.5 -11.6875 9.5625 -11.6875 C 8.625 -11.6875 7.882812 -11.410156 7.34375 -10.859375 C 6.8125 -10.304688 6.546875 -9.523438 6.546875 -8.515625 L 6.546875 0 L 1.75 0 L 1.75 -15.6875 L 6.546875 -15.6875 L 6.546875 -13.71875 C 7.035156 -14.375 7.671875 -14.894531 8.453125 -15.28125 C 9.242188 -15.664062 10.132812 -15.859375 11.125 -15.859375 C 12.3125 -15.859375 13.367188 -15.601562 14.296875 -15.09375 C 15.222656 -14.582031 15.945312 -13.863281 16.46875 -12.9375 C 17.007812 -13.789062 17.75 -14.488281 18.6875 -15.03125 C 19.625 -15.582031 20.644531 -15.859375 21.75 -15.859375 Z M 21.75 -15.859375 "/></g></g></g></svg>