<svg xmlns="http://www.w3.org/2000/svg" xmlns:xlink="http://www.w3.org/1999/xlink" width="500" zoomAndPan="magnify" viewBox="0 0 375 225" height="300" preserveAspectRatio="xMidYMid meet" version="1.0"><path fill="#8c52ff" d="M 192.605469 126.507812 C 155.414062 140.046875 121.085938 150.058594 96.226562 155.136719 C 73.351562 159.792969 58.5 160.296875 56.761719 155.519531 C 55.085938 150.917969 65.902344 142.230469 85.058594 131.652344 C 86.964844 130.601562 88.046875 128.480469 87.75 126.324219 C 87.746094 126.285156 87.742188 126.25 87.734375 126.210938 C 87.246094 122.621094 83.410156 120.546875 80.15625 122.136719 C 30.753906 146.335938 0.140625 168.433594 4.15625 179.464844 C 8.265625 190.757812 47.710938 187.597656 103.222656 173.523438 C 105.238281 173.011719 107.375 173.710938 108.664062 175.339844 C 134.871094 208.382812 180.226562 222.582031 222.035156 207.363281 C 274.875 188.128906 287.230469 149.605469 288.453125 121.109375 C 289.15625 104.679688 283.773438 93.324219 192.605469 126.507812 Z M 192.605469 126.507812 " fill-opacity="1" fill-rule="nonzero"/><path fill="#8c52ff" d="M 371.007812 45.941406 C 366.808594 34.40625 325.84375 37.9375 268.550781 52.75 C 242.710938 17.789062 196.046875 2.40625 153.125 18.03125 C 108.8125 34.160156 93.40625 65.082031 88.640625 90.355469 C 85.324219 107.941406 88.078125 123.691406 179.472656 90.425781 C 216.085938 77.101562 249.914062 67.199219 274.679688 62.050781 C 298.207031 57.15625 313.550781 56.554688 315.320312 61.414062 C 316.871094 65.671875 307.726562 73.421875 291.175781 82.949219 C 287.507812 85.058594 285.65625 89.292969 286.472656 93.445312 C 286.484375 93.515625 286.496094 93.582031 286.511719 93.648438 C 287.75 100.03125 294.804688 103.402344 300.613281 100.488281 C 346.710938 77.382812 374.863281 56.539062 371.007812 45.941406 Z M 371.007812 45.941406 " fill-opacity="1" fill-rule="nonzero"/></svg>